<svg fill="none" xmlns="http://www.w3.org/2000/svg" viewBox="0 0 96 96" class="design-iconfont">
  <path d="M70.3658 55.2589L70.3616 55.2505L70.3564 55.2428C70.1309 54.9044 70.0688 54.442 70.1577 53.9975C70.2466 53.553 70.4817 53.15 70.8201 52.9245C71.1584 52.6989 71.6209 52.6368 72.0654 52.7257C72.5065 52.8139 72.9068 53.0463 73.1333 53.3806C73.6345 54.3845 74.1237 55.6182 74.1237 56.8417C74.1237 58.0837 73.8757 59.3067 73.1496 60.2801C72.6634 60.7638 72.1965 60.9865 71.7474 60.9865C71.6202 60.9865 71.4424 60.9862 71.2668 60.9569C71.0877 60.9271 70.936 60.8709 70.8429 60.7778L70.8324 60.7673L70.8201 60.759C70.4817 60.5335 70.2466 60.1305 70.1577 59.686C70.0688 59.2415 70.1309 58.7791 70.3564 58.4407L70.3616 58.433L70.3658 58.4246L70.3749 58.4063C70.6207 57.9148 70.8869 57.3826 70.8869 56.8417C70.8869 56.3009 70.6207 55.7686 70.3749 55.2771L70.3658 55.2589ZM59.7711 56.8417C59.7711 54.1507 61.9724 52.1917 64.4211 52.1917C67.1121 52.1917 69.0711 54.3931 69.0711 56.8417C69.0711 59.5328 66.8698 61.4918 64.4211 61.4918C61.7301 61.4918 59.7711 59.2904 59.7711 56.8417ZM63.0079 56.8417C63.0079 57.2548 63.1463 57.6106 63.3992 57.8636C63.6522 58.1166 64.0081 58.2549 64.4211 58.2549C64.8341 58.2549 65.19 58.1166 65.443 57.8636C65.6959 57.6106 65.8343 57.2548 65.8343 56.8417C65.8343 56.4287 65.6959 56.0729 65.443 55.8199C65.19 55.5669 64.8341 55.4286 64.4211 55.4286C64.0081 55.4286 63.6522 55.5669 63.3992 55.8199C63.1463 56.0729 63.0079 56.4287 63.0079 56.8417Z" fill="#26313D" stroke="#E7E8EB" stroke-width=".3"/>
  <path fill-rule="evenodd" clip-rule="evenodd" d="M45.6007 21.8207C41.8372 18.9491 36.8446 18.2587 32.443 20.001L19.6177 25.0776C18.3149 25.5933 16.8802 25.6742 15.5276 25.3082L9.12533 23.5758C6.26474 22.8018 3.44995 24.9562 3.44995 27.9196V44.5711C3.44995 45.9801 4.29488 47.2518 5.59384 47.7977L14.6274 51.5944L21.7644 55.7747C24.1405 57.1664 26.8445 57.9 29.5982 57.9H37.2V70.7C37.2 73.7375 39.6624 76.2 42.7 76.2H86.2999C89.3375 76.2 91.7999 73.7375 91.7999 70.7V42.7C91.7999 39.6624 89.3375 37.2 86.2999 37.2H62.7981C62.9744 36.0353 62.5819 34.7775 61.4547 33.9174L45.6007 21.8207ZM59.3317 37.2C59.8101 37.2 60.0153 36.5927 59.635 36.3025L43.7809 24.2057C40.8537 21.9723 36.9706 21.4353 33.5471 22.7904L20.7219 27.867C18.8177 28.6208 16.7209 28.739 14.7441 28.2041L8.34174 26.4717C7.38821 26.2137 6.44995 26.9318 6.44995 27.9196V44.5711C6.44995 44.7724 6.57065 44.954 6.75622 45.032L15.8811 48.8671L15.9725 48.9056L16.0581 48.9557L23.2806 53.186C25.1968 54.3084 27.3775 54.9 29.5982 54.9H43.9499H44.2264L44.4847 54.9985C46.3206 55.6991 48.8843 56.4513 51.1257 56.5706C53.4899 56.6963 54.7292 56.113 55.1667 55.0699C55.8947 53.3338 55.5332 51.7759 54.2831 50.4647C52.9641 49.0814 50.5942 47.9422 47.3639 47.5384C44.509 47.1815 42.0094 46.5816 40.2473 45.5263C39.3463 44.9866 38.5709 44.2884 38.0694 43.3786C37.5577 42.4502 37.3922 41.4111 37.543 40.314C37.8434 38.1269 39.9307 37.2 41.5105 37.2H57H59.3317ZM57 40.2H41.5105C41.1966 40.2 40.9174 40.2925 40.7373 40.4153C40.574 40.5267 40.5276 40.6308 40.515 40.7224C40.4426 41.2497 40.5293 41.6266 40.6967 41.9305C40.8744 42.2528 41.2051 42.603 41.7887 42.9525C42.996 43.6755 44.9801 44.2171 47.736 44.5616C51.4057 45.0203 54.5108 46.3561 56.4543 48.3946C58.4667 50.5053 59.1552 53.3161 57.9332 56.2301C56.6936 59.1862 53.5329 59.7029 50.9664 59.5663C48.3942 59.4295 45.6314 58.6255 43.6771 57.9H40.2V70.7C40.2 72.0807 41.3192 73.2 42.7 73.2H86.2999C87.6807 73.2 88.7999 72.0807 88.7999 70.7V42.7C88.7999 41.3193 87.6807 40.2 86.2999 40.2H59.3317H57ZM74.7917 50.0363C75.4896 49.5899 76.4172 49.7938 76.8636 50.4917C78.1528 52.5074 78.9 54.9034 78.9 57.4692C78.9 59.7344 78.3176 61.8681 77.2931 63.7247C76.8928 64.45 75.9804 64.7135 75.2551 64.3133C74.5297 63.913 74.2662 63.0006 74.6665 62.2752C75.4523 60.8511 75.9 59.2146 75.9 57.4692C75.9 55.4934 75.3262 53.6558 74.3363 52.1082C73.8899 51.4103 74.0938 50.4827 74.7917 50.0363ZM82.1098 47.606C81.7265 46.8715 80.8204 46.5869 80.086 46.9701C79.3515 47.3534 79.0669 48.2595 79.4501 48.9939C80.605 51.2068 81.2999 53.9419 81.2999 56.9243C81.2999 59.9689 80.5757 62.7554 79.3777 64.9916C78.9865 65.7219 79.2614 66.631 79.9916 67.0222C80.7219 67.4134 81.631 67.1385 82.0222 66.4083C83.4665 63.7121 84.2999 60.435 84.2999 56.9243C84.2999 53.4848 83.5 50.27 82.1098 47.606Z" fill="#26313D"/>
</svg>
