<svg fill="none" xmlns="http://www.w3.org/2000/svg" viewBox="0 0 96 96" class="design-iconfont">
  <path d="M79.5 48.1489C79.5 59.0256 75.0985 68.9007 68.957 76.0582C62.7794 83.2579 55.0345 87.5 48.5 87.5C41.6728 87.5 33.9306 83.2498 27.8346 76.0646C21.7687 68.9148 17.5 59.0388 17.5 48.1489C17.5 37.051 19.8886 27.6304 24.8933 21.0193C29.848 14.4743 37.5033 10.5 48.5 10.5C59.4967 10.5 67.152 14.4743 72.1067 21.0193C77.1114 27.6304 79.5 37.051 79.5 48.1489Z" stroke="#26313D" stroke-width="3"/>
  <path d="M78.5 47.5C78.5 48.4886 77.956 49.6225 76.5445 50.8408C75.1374 52.0553 73.0138 53.2171 70.2595 54.2227C64.763 56.2293 57.0701 57.5 48.5 57.5C39.9299 57.5 32.237 56.2293 26.7405 54.2227C23.9862 53.2171 21.8626 52.0553 20.4555 50.8408C19.044 49.6225 18.5 48.4886 18.5 47.5C18.5 46.5114 19.044 45.3775 20.4555 44.1592C21.8626 42.9447 23.9862 41.7829 26.7405 40.7773C32.237 38.7707 39.9299 37.5 48.5 37.5C57.0701 37.5 64.763 38.7707 70.2595 40.7773C73.0138 41.7829 75.1374 42.9447 76.5445 44.1592C77.956 45.3775 78.5 46.5114 78.5 47.5Z" stroke="#26313D" stroke-width="3"/>
  <path fill="#26313D" d="M47 9H50V89H47z"/>
</svg>
