<svg fill="none" xmlns="http://www.w3.org/2000/svg" viewBox="0 0 96 96" class="design-iconfont">
  <path d="M29.002 84.0802C28.1331 84.247 27.3188 83.6366 27.1918 82.761V82.761C27.065 81.8865 27.6719 81.0786 28.5389 80.908C36.8008 79.2826 44.1073 74.5116 48.915 67.6065C49.4172 66.8853 50.3942 66.6538 51.142 67.1154V67.1154C51.8959 67.5808 52.1303 68.5732 51.6276 69.3028C46.3179 77.0099 38.1863 82.3176 29.002 84.0802ZM54.8075 63.1668C54.4677 63.9789 53.5144 64.3183 52.718 63.9433V63.9433C51.9196 63.5674 51.5817 62.6164 51.9181 61.8006C53.5176 57.9219 54.3352 53.7565 54.3186 49.5468H57.5155C57.5323 54.228 56.6116 58.8563 54.8075 63.1668ZM73.529 62.3302C73.5284 63.2128 72.8127 63.9281 71.9301 63.9281V63.9281C71.047 63.9281 70.3311 63.2122 70.3311 62.3291V49.5468C70.3478 45.2455 69.1118 41.0406 66.7881 37.446C66.3076 36.7028 66.4451 35.7004 67.154 35.1706V35.1706C67.8585 34.6443 68.8605 34.7839 69.3448 35.5179C72.0852 39.6716 73.5543 44.5565 73.5374 49.5562L73.529 62.3302ZM64.2345 31.9667C63.6357 32.6147 62.6272 32.648 61.9394 32.0955C53.8919 25.6306 42.4187 25.5241 34.2559 31.8461C33.5582 32.3865 32.5507 32.337 31.9612 31.6803V31.6803C31.3702 31.0219 31.4238 30.0036 32.1187 29.4558C41.5184 22.046 54.8511 22.1657 64.114 29.7495C64.795 30.3071 64.8318 31.3203 64.2345 31.9667V31.9667ZM25.5842 49.5281C25.5894 50.4068 24.8785 51.1218 23.9998 51.1218H23.9624C23.0925 51.1218 22.3874 50.4167 22.3874 49.5468V49.5468C22.3704 44.5467 23.8397 39.6615 26.5806 35.5006C27.0644 34.7661 28.0667 34.6259 28.7713 35.1524V35.1524C29.4799 35.6819 29.6174 36.6838 29.1369 37.4265C26.8111 41.0212 25.5676 45.2264 25.5842 49.5281V49.5281Z" fill="#26313D"/>
  <path d="M57.5437 49.5562H54.3187C54.3093 46.8187 52.5562 44.3906 49.9687 43.5187C47.8833 42.8185 45.6286 43.2429 43.962 44.5636C43.2733 45.1093 42.2863 45.2686 41.5833 44.7414V44.7414C40.8763 44.2111 40.725 43.1956 41.3655 42.5866C43.9012 40.1753 47.6028 39.3113 51 40.4437C54.9093 41.7468 57.5531 45.4125 57.5531 49.5375V49.5562H57.5437ZM23.9814 68.652C23.104 68.725 22.3875 68.0046 22.3875 67.1242V67.1242C22.3875 66.2444 23.1028 65.5395 23.9783 65.453C32.0535 64.6544 38.363 57.8412 38.3718 49.5562V49.5562C38.3718 48.6734 39.0898 47.9531 39.9726 47.9531V47.9531C40.8528 47.9531 41.5687 48.6666 41.5687 49.5468V49.5468C41.5598 59.5945 33.8207 67.8342 23.9814 68.652ZM73.5281 71.939C73.5281 72.827 72.8045 73.5588 71.9258 73.4307C69.549 73.0845 67.3343 71.9749 65.6156 70.2562C63.5156 68.1562 62.3437 65.3062 62.3437 62.3343V49.5468C62.3437 46.9716 61.6506 44.4606 60.3547 42.2634C59.9054 41.5016 60.0408 40.5014 60.7492 39.972V39.972C61.4545 39.445 62.4603 39.5842 62.9239 40.3328C64.6347 43.0957 65.5486 46.2925 65.5406 49.5656V62.3437C65.5406 66.2112 68.288 69.4315 71.9307 70.1713C72.8009 70.3481 73.5281 71.051 73.5281 71.939V71.939ZM57.5485 36.7685C57.0178 37.4726 56.0204 37.6042 55.2615 37.1554C53.0604 35.8537 50.5403 35.1656 47.9625 35.1656C46.5232 35.1725 45.1042 35.4323 43.7649 35.9301C42.9538 36.2316 42.0095 35.9625 41.5853 35.2082V35.2082C41.1445 34.4242 41.4342 33.4228 42.2692 33.0888C44.0728 32.3674 45.9986 31.9927 47.9531 31.9781C51.225 31.97 54.4277 32.8834 57.1919 34.593C57.9416 35.0567 58.0791 36.0645 57.5485 36.7685V36.7685Z" fill="#26313D"/>
  <path d="M23.9811 60.6278C23.1072 60.7526 22.3875 60.0249 22.3875 59.1421V59.1421C22.3875 58.2593 23.1101 57.5598 23.9753 57.3841C25.5034 57.0737 26.9209 56.3197 28.0406 55.2C29.5406 53.7 30.3843 51.6656 30.3843 49.5468C30.4425 45.4388 31.9318 41.5004 34.5706 38.3926C35.1328 37.7305 36.132 37.7323 36.7538 38.3387V38.3387C37.3945 38.9637 37.3876 39.9888 36.823 40.6833C34.7947 43.1781 33.6467 46.296 33.5906 49.5375C33.582 55.1831 29.4056 59.8532 23.9811 60.6278ZM70.3356 80.7297C70.157 81.5939 69.3092 82.158 68.4634 81.9062C64.3555 80.6834 60.9099 78.0344 57.7868 73.7121C57.2695 72.9962 57.4774 72.0005 58.2159 71.5159V71.5159C58.9529 71.0323 59.9386 71.2405 60.4569 71.9536C63.0686 75.5469 65.8158 77.7098 69.1113 78.7589C69.9534 79.027 70.5144 79.8642 70.3356 80.7297V80.7297ZM37.0202 89.5184C36.1661 89.7305 35.3363 89.1517 35.1762 88.2863V88.2863C35.0151 87.4158 35.5927 86.5848 36.449 86.3601C39.9566 85.4396 43.6005 83.5685 47.3437 80.7468C50.4468 78.4031 54.7781 78.5718 57.6843 81.1593C59.3864 82.6638 61.2486 83.9774 63.226 85.0802C63.9934 85.5081 64.3217 86.4565 63.938 87.247V87.247C63.5503 88.0459 62.5839 88.3791 61.8067 87.9494C59.5786 86.7178 57.4872 85.2487 55.575 83.5687C53.8031 81.9843 51.1593 81.8718 49.2656 83.3062C45.1263 86.4335 41.0164 88.5259 37.0202 89.5184ZM43.1577 67.0381C42.5887 67.7099 41.5764 67.7337 40.936 67.1295V67.1295C40.2919 66.5217 40.2686 65.5096 40.8338 64.8278C44.3815 60.5481 46.3398 55.1411 46.3312 49.5468V49.5468C46.3312 48.6614 47.0489 47.9437 47.9343 47.9437H47.9718C48.852 47.9437 49.5656 48.6572 49.5656 49.5375V49.5375C49.5656 55.9702 47.2869 62.1631 43.1577 67.0381ZM23.9655 76.6747C23.0941 76.7228 22.3875 76.0096 22.3875 75.1368V75.1368C22.3875 74.2596 23.1011 73.555 23.9765 73.4994C27.9 73.2503 31.7017 72.0281 35.0382 69.9473C35.7871 69.4803 36.7835 69.638 37.2985 70.3548V70.3548C37.8134 71.0715 37.6513 72.0743 36.9048 72.5449C33.0114 74.9994 28.5589 76.4213 23.9655 76.6747Z" fill="#26313D"/>
  <path d="M72.2554 28.7665C71.583 29.3425 70.5722 29.2553 69.9673 28.6087C62.4321 20.5555 51.0406 17.3306 40.4045 20.2467C39.5441 20.4826 38.6308 20.0205 38.3636 19.1693V19.1693C38.1028 18.3384 38.5564 17.4476 39.395 17.2129C51.2758 13.8871 64.0337 17.5014 72.4098 26.5573C73.0028 27.1985 72.9187 28.1983 72.2554 28.7665V28.7665ZM25.9599 28.6007C25.3543 29.2525 24.3388 29.3396 23.6633 28.7606V28.7606C22.9981 28.1904 22.9132 27.188 23.5064 26.5432C25.8193 24.0285 28.4904 21.8685 31.4407 20.1377C32.2104 19.6861 33.1893 20.0015 33.5926 20.7976V20.7976C33.9869 21.576 33.6822 22.5233 32.9322 22.9693C30.3516 24.5036 28.0036 26.4009 25.9599 28.6007Z" fill="#26313D"/>
  <path d="M67.1366 14.4805C66.7112 15.2639 65.7313 15.5494 64.9319 15.155C54.2304 9.87657 41.6759 9.87657 30.9745 15.155C30.175 15.5494 29.1952 15.2639 28.7698 14.4805V14.4805C28.346 13.7002 28.6327 12.721 29.4276 12.3253C41.0922 6.51981 54.8142 6.51982 66.4788 12.3253C67.2737 12.721 67.5603 13.7002 67.1366 14.4805V14.4805Z" fill="#26313D"/>
</svg>
