<svg fill="none" xmlns="http://www.w3.org/2000/svg" viewBox="0 0 96 96" class="design-iconfont">
  <path fill-rule="evenodd" clip-rule="evenodd" d="M24.8 24.8C27.451 24.8 29.6 22.6509 29.6 20C29.6 17.349 27.451 15.2 24.8 15.2C22.149 15.2 20 17.349 20 20C20 22.6509 22.149 24.8 24.8 24.8ZM24.8 44C27.451 44 29.6 41.8509 29.6 39.2C29.6 36.549 27.451 34.4 24.8 34.4C22.149 34.4 20 36.549 20 39.2C20 41.8509 22.149 44 24.8 44ZM29.6 58.3999C29.6 61.0509 27.451 63.2 24.8 63.2C22.149 63.2 20 61.0509 20 58.3999C20 55.749 22.149 53.5999 24.8 53.5999C27.451 53.5999 29.6 55.749 29.6 58.3999ZM48.8 24.8C51.451 24.8 53.6 22.6509 53.6 20C53.6 17.349 51.451 15.2 48.8 15.2C46.149 15.2 44 17.349 44 20C44 22.6509 46.149 24.8 48.8 24.8ZM53.6 39.2C53.6 41.8509 51.451 44 48.8 44C46.149 44 44 41.8509 44 39.2C44 36.549 46.149 34.4 48.8 34.4C51.451 34.4 53.6 36.549 53.6 39.2ZM48.8 63.2C51.451 63.2 53.6 61.0509 53.6 58.3999C53.6 55.749 51.451 53.5999 48.8 53.5999C46.149 53.5999 44 55.749 44 58.3999C44 61.0509 46.149 63.2 48.8 63.2ZM53.6 77.5999C53.6 80.2509 51.451 82.3999 48.8 82.3999C46.149 82.3999 44 80.2509 44 77.5999C44 74.949 46.149 72.7999 48.8 72.7999C51.451 72.7999 53.6 74.949 53.6 77.5999ZM72.8 24.8C75.451 24.8 77.6 22.6509 77.6 20C77.6 17.349 75.451 15.2 72.8 15.2C70.149 15.2 68 17.349 68 20C68 22.6509 70.149 24.8 72.8 24.8ZM77.6 39.2C77.6 41.8509 75.451 44 72.8 44C70.149 44 68 41.8509 68 39.2C68 36.549 70.149 34.4 72.8 34.4C75.451 34.4 77.6 36.549 77.6 39.2ZM72.8 63.2C75.451 63.2 77.6 61.0509 77.6 58.3999C77.6 55.749 75.451 53.5999 72.8 53.5999C70.149 53.5999 68 55.749 68 58.3999C68 61.0509 70.149 63.2 72.8 63.2Z" fill="#15161A"/>
</svg>
