<svg fill="none" xmlns="http://www.w3.org/2000/svg" viewBox="0 0 128 128" class="design-iconfont">
  <g clip-path="url(#wzy2550it__clip0_732_8575)">
    <path transform="translate(-315 -524)" d="M0 0H750V1624H0z"/>
    <path fill-rule="evenodd" clip-rule="evenodd" d="M63.2593 124C97.1378 124 124 97.1378 124 64.7407C124 30.8622 97.1378 4 63.2593 4C30.8622 4 4 30.8622 4 64.7407C4 97.1378 30.8622 124 63.2593 124ZM63.2593 10C93.8241 10 118 34.1759 118 64.7407C118 94.0281 93.6157 118 63.2593 118C34.1759 118 10 93.8241 10 64.7407C10 34.3843 33.9719 10 63.2593 10Z" fill="#FA5151"/>
    <path fill-rule="evenodd" clip-rule="evenodd" d="M86.4203 41.2875C85.2487 40.1159 83.3492 40.1159 82.1777 41.2875L65.2071 58.2581L47.5294 40.5804C46.3579 39.4088 44.4584 39.4088 43.2868 40.5804L42.5797 41.2875C41.4081 42.4591 41.4081 44.3586 42.5797 45.5301L60.2574 63.2078L43.2868 80.1784C42.1152 81.3499 42.1152 83.2494 43.2868 84.421L43.9939 85.1281C45.1655 86.2997 47.065 86.2997 48.2365 85.1281L65.2071 68.1576L81.4706 84.421C82.6421 85.5926 84.5416 85.5926 85.7132 84.421L86.4203 83.7139C87.5919 82.5423 87.5919 80.6428 86.4203 79.4713L70.1569 63.2078L87.1274 46.2372C88.299 45.0657 88.299 43.1662 87.1274 41.9946L86.4203 41.2875Z" fill="#FA5151"/>
  </g>
</svg>
