<svg fill="none" xmlns="http://www.w3.org/2000/svg" viewBox="0 0 48 38" class="design-iconfont">
  <rect x="1.5" y="1.5" width="45" height="35" rx="2.5" stroke="#15161A" stroke-width="3"/>
  <path d="M8.78705 28H11.3091V9.176H8.78705V28ZM15.5206 12.01C16.4566 12.01 17.1326 11.308 17.1326 10.424C17.1326 9.488 16.4566 8.812 15.5206 8.812C14.5846 8.812 13.9346 9.488 13.9346 10.424C13.9346 11.334 14.5846 12.01 15.5206 12.01ZM14.2726 28H16.7946V14.298H14.2726V28ZM26.0998 14.298L24.5918 20.46C24.2798 21.916 23.8378 23.996 23.6558 24.984H23.5258C23.3438 23.996 22.9018 21.916 22.5898 20.46L21.0818 14.298H18.4038L22.1738 28H24.9818L28.7518 14.298H26.0998ZM37.1823 23.71C36.9483 25.192 36.2983 25.868 34.7643 25.868C33.3863 25.868 32.5803 25.01 32.5803 23.138V22.098H39.5223V19.056C39.5223 15.806 37.6763 13.96 34.7383 13.96C31.8523 13.96 30.0583 15.806 30.0583 19.056V23.138C30.0583 26.414 31.8523 28.286 34.7123 28.286C37.6763 28.286 39.4703 26.622 39.7043 23.71H37.1823ZM34.7643 16.326C36.1943 16.326 37.0263 17.158 37.0263 19.03V20.2H32.5803V19.03C32.5803 17.158 33.3863 16.326 34.7643 16.326Z" fill="#15161A"/>
</svg>
