<svg fill="none" xmlns="http://www.w3.org/2000/svg" viewBox="0 0 48 48" class="design-iconfont">
  <path d="M24 24C29.5229 24 34 19.5229 34 14C34 8.47716 29.5229 4 24 4C18.4771 4 14 8.47716 14 14C14 19.5229 18.4771 24 24 24Z" stroke="#15161A" stroke-width="3" stroke-linecap="round" stroke-linejoin="round"/>
  <path d="M7 40.9714V42H41V40.9714C41 37.1311 41 35.2109 40.0118 33.7441C39.1426 32.4538 37.7555 31.4048 36.0495 30.7473C34.11 30 31.5711 30 26.4933 30H21.5067C16.4289 30 13.89 30 11.9505 30.7473C10.2445 31.4048 8.85745 32.4538 7.98821 33.7441C7 35.2109 7 37.1311 7 40.9714Z" stroke="#15161A" stroke-width="3" stroke-linecap="round" stroke-linejoin="round"/>
</svg>
