<svg fill="none" xmlns="http://www.w3.org/2000/svg" viewBox="0 0 128 128" class="design-iconfont">
  <path opacity=".01" fill="#fff" d="M0 0H128V128H0z"/>
  <path fill-rule="evenodd" clip-rule="evenodd" d="M124 64.7407C124 97.1378 97.1378 124 63.2593 124C30.8622 124 4 97.1378 4 64.7407C4 30.8622 30.8622 4 63.2593 4C97.1378 4 124 30.8622 124 64.7407ZM118 64.7407C118 34.1759 93.8241 10 63.2593 10C33.9719 10 10 34.3843 10 64.7407C10 93.8241 34.1759 118 63.2593 118C93.6157 118 118 94.0281 118 64.7407ZM32.0587 63.7211C31.066 65.0718 31.1919 66.9415 32.3566 68.147L51.8068 88.2769C52.3724 88.8622 53.3067 88.874 53.8868 88.3031L98.493 44.4039C99.5971 43.3173 99.5986 41.5376 98.4965 40.4491C97.4795 39.4447 95.8662 39.3765 94.768 40.2914L53.1142 74.9924C52.9509 75.1284 52.7152 75.1332 52.5466 75.0039L36.9215 63.0282C35.3926 61.8564 33.1994 62.1689 32.0587 63.7211Z" fill="#07C160"/>
</svg>
