<svg fill="none" xmlns="http://www.w3.org/2000/svg" viewBox="0 0 686 80" class="design-iconfont">
  <path opacity=".5" d="M0 16C0 7.16344 7.16345 0 16 0H670C678.837 0 686 7.16344 686 16V64C686 72.8366 678.837 80 670 80H16C7.16343 80 0 72.8366 0 64V16Z" fill="#fff"/>
  <path d="M29.432 27.684L27.416 29.14C28.928 30.708 30.16 32.164 31.112 33.48L33.184 32.052C32.288 30.764 31.056 29.308 29.432 27.684ZM39.484 39.444L37.356 40.788C39.148 42.944 40.548 44.904 41.612 46.668L43.964 45.044C42.9 43.448 41.416 41.572 39.484 39.444ZM35.2 27.04V30.988C35.172 31.94 35.116 32.864 35.06 33.76H26.296V36.364H34.78C34.388 38.968 33.8 41.236 32.988 43.168C31.644 46.108 29.096 48.516 25.344 50.42L26.828 52.772C30.636 50.98 33.352 48.46 35.004 45.184C36.152 42.804 36.964 39.864 37.412 36.364H46.4C46.4 39.752 46.288 42.888 46.12 45.772C45.924 48.628 45.196 50.112 43.908 50.224C42.648 50.224 41.248 50.14 39.736 50L40.436 52.576C41.416 52.66 42.62 52.716 44.076 52.716C45.98 52.716 47.296 51.596 48.052 49.356C48.752 47.116 49.116 41.936 49.116 33.76H37.664C37.72 32.864 37.776 31.94 37.804 30.988V27.04H35.2ZM55.444 27.32L53.68 29C55.5 30.652 56.928 32.192 57.936 33.592L59.756 31.772C58.58 30.288 57.152 28.804 55.444 27.32ZM71.852 52.408H78.264L78.908 49.776C78.152 49.832 77.06 49.888 75.66 49.916C74.232 49.944 72.832 49.972 71.488 49.972C69.192 49.972 67.232 49.944 65.58 49.916C63.872 49.86 62.584 49.608 61.716 49.216C60.988 48.852 60.288 48.292 59.588 47.536C59.448 47.368 59.308 47.228 59.14 47.116V36.532H53.428V38.996H56.62V47.004C55.64 47.62 54.52 49.048 53.288 51.232L55.164 52.996C56.452 50.476 57.32 49.216 57.824 49.216C58.16 49.216 58.552 49.44 58.944 49.916C59.784 50.868 60.792 51.54 61.968 51.876C63.2 52.156 64.74 52.324 66.644 52.352C68.52 52.38 70.256 52.408 71.852 52.408ZM66.84 30.596V34.376H64.04V30.596H66.84ZM64.012 36.588H69.08V28.328H61.772V35.328C61.744 39.752 61.044 43.364 59.7 46.164L61.464 47.704C62.668 45.24 63.452 42.412 63.816 39.22V48.208H69.472V38.66H63.872C63.928 37.988 63.956 37.288 64.012 36.588ZM67.456 46.192H65.832V40.648H67.456V46.192ZM74.82 27.124L72.468 27.516C72.748 28.132 73.028 28.804 73.28 29.532H70.032V31.8H78.768V29.532H75.548C75.324 28.636 75.072 27.852 74.82 27.124ZM72.636 32.36L70.76 33.144C71.264 34.04 71.768 35.132 72.216 36.392H69.948V38.66H73.196V41.208H70.34V43.476H73.196V48.684H75.604V43.476H78.376V41.208H75.604V38.66H78.88V36.392H76.892C77.396 35.216 77.788 33.956 78.068 32.612L75.912 32.332C75.632 33.732 75.24 35.076 74.736 36.392H72.272L74.008 35.636C73.616 34.46 73.168 33.368 72.636 32.36ZM84.592 36V43.532H91.256C91.144 43.756 91.004 44.008 90.892 44.288C89.38 46.892 86.244 49.104 81.428 50.896L83.108 52.968C88.596 50.84 92.04 48.152 93.496 44.96C93.72 44.512 93.916 44.036 94.084 43.532H95.064V49.188C95.064 51.372 96.016 52.464 97.948 52.464H103.52C104.528 52.464 105.256 52.212 105.732 51.708C106.236 51.148 106.572 49.496 106.796 46.696L104.276 45.884C104.22 47.816 104.08 48.964 103.856 49.356C103.688 49.692 103.408 49.888 103.016 49.888H98.76C98.06 49.888 97.724 49.468 97.724 48.628V43.532H104.052V34.544H97.64C98.62 33.648 99.6 32.556 100.608 31.296V29.28H91.256C91.676 28.692 92.096 28.104 92.488 27.488L89.8 26.9C87.448 30.372 84.648 33.06 81.344 35.02L83.024 37.064C83.556 36.728 84.088 36.364 84.592 36ZM94.308 34.544H86.412C87.42 33.676 88.372 32.724 89.324 31.688H97.164C96.212 32.752 95.26 33.704 94.308 34.544ZM101.504 41.04H94.812C95.064 39.808 95.232 38.464 95.288 37.008H101.504V41.04ZM92.068 41.04H87.168V37.008H92.628C92.544 38.464 92.348 39.808 92.068 41.04ZM120.152 29.952V32.332H122.952V35.3H119.424V37.764H135.02V35.3H131.436V32.332H134.376V29.952H131.436V26.956H128.916V29.952H125.472V26.956H122.952V29.952H120.152ZM125.472 35.3V32.332H128.916V35.3H125.472ZM133.312 39.5H121.272V52.912H123.792V51.708H130.792V52.94H133.312V39.5ZM123.792 49.3V46.696H130.792V49.3H123.792ZM123.792 44.344V41.852H130.792V44.344H123.792ZM112.536 27.096C111.808 30.344 110.548 33.396 108.812 36.196L110.968 37.568C111.304 37.008 111.668 36.42 112.004 35.804V38.044H113.46V40.9H109.848V43.364H113.46V48.908C113.46 49.356 113.124 49.72 112.452 49.972L113.572 52.24C116.036 51.568 118.248 50.728 120.152 49.72L119.676 47.396C118.472 48.124 117.268 48.712 116.064 49.16V43.364H119.704V40.9H116.064V38.044H118.752V35.664H112.088C112.592 34.712 113.096 33.648 113.544 32.528H119.256V29.98H114.44C114.664 29.224 114.888 28.44 115.112 27.628L112.536 27.096ZM139.668 27.32L137.848 29.056C139.864 30.68 141.404 32.22 142.524 33.62L144.456 31.688C143.14 30.232 141.544 28.776 139.668 27.32ZM156.468 52.408H162.404L163.048 49.72C162.348 49.776 161.34 49.832 159.996 49.888C158.68 49.888 157.392 49.916 156.132 49.916C153.836 49.916 151.876 49.888 150.224 49.86C148.488 49.804 147.2 49.58 146.332 49.188C145.604 48.824 144.876 48.264 144.204 47.536C144.064 47.368 143.924 47.228 143.756 47.116V36.504H137.4V39.024H141.208V46.92C140.088 47.508 138.8 48.964 137.372 51.288L139.332 53.108C140.788 50.504 141.824 49.216 142.412 49.216C142.748 49.216 143.14 49.44 143.532 49.916C144.4 50.868 145.436 51.54 146.612 51.876C147.788 52.156 149.356 52.324 151.26 52.352C153.136 52.38 154.872 52.408 156.468 52.408ZM155.656 48.628C157.56 48.628 158.54 47.676 158.54 45.772V34.012H162.516V31.408H158.54V27.096H155.88V31.408H145.352V34.012H155.88V45.128C155.88 45.856 155.488 46.248 154.732 46.248C153.584 46.248 152.38 46.192 151.12 46.08L151.708 48.628H155.656ZM148.88 36.056L146.808 37.344C148.46 39.388 149.776 41.236 150.728 42.888L152.856 41.404C151.932 39.892 150.616 38.1 148.88 36.056ZM168.06 35.188V44.82H176.628V46.304H166.94V48.404H176.628V50H165.54V52.268H190.46V50H179.288V48.404H189.06V46.304H179.288V44.82H187.884V35.188H179.288V33.816H190.04V31.576H179.288V29.896C182.34 29.7 185.196 29.476 187.856 29.252L187.044 27.096C181.416 27.656 174.976 28.048 167.696 28.272L168.144 30.4C171.112 30.288 173.94 30.176 176.628 30.036V31.576H165.932V33.816H176.628V35.188H168.06ZM185.308 42.72H179.288V40.984H185.308V42.72ZM176.628 42.72H170.608V40.984H176.628V42.72ZM170.608 38.968V37.288H176.628V38.968H170.608ZM179.288 37.288H185.308V38.968H179.288V37.288ZM193.54 27.992V30.372H201.576V32.416H195.22V39.836H202.304C201.94 40.48 201.548 41.124 201.156 41.796H193.176V44.26H199.644C199.084 45.156 198.468 46.052 197.852 46.948C200.008 47.452 202.164 48.012 204.32 48.656C201.856 49.496 198.356 50.14 193.876 50.644L194.884 52.996C200.876 52.184 205.188 51.092 207.82 49.748C210.816 50.728 213.812 51.848 216.78 53.108L218.432 50.924C215.632 49.86 212.888 48.908 210.228 48.096C211.488 46.976 212.384 45.716 212.944 44.26H218.796V41.796H204.18C204.516 41.18 204.88 40.536 205.3 39.836H216.78V32.416H210.424V30.372H218.46V27.992H193.54ZM207.344 47.256C205.384 46.724 203.48 46.276 201.604 45.884L202.696 44.26H210.172C209.612 45.436 208.66 46.416 207.344 47.256ZM207.876 32.416H204.124V30.372H207.876V32.416ZM214.232 37.568H210.424V34.684H214.232V37.568ZM207.876 37.568H204.124V34.684H207.876V37.568ZM201.576 37.568H197.768V34.684H201.576V37.568ZM224.396 32.08V37.848H232.684V39.248H223.724V41.32H232.684V42.916H221.176V45.072H232.684V46.612H223.696V48.74H232.684V49.552C232.684 50.14 232.32 50.448 231.648 50.448C230.64 50.448 229.604 50.364 228.54 50.252L229.1 52.772H232.544C234.392 52.772 235.316 51.904 235.316 50.168V48.74H243.996V45.072H246.824V42.916H243.996V39.248H235.316V37.848H243.604V32.08H235.316V30.68H246.068V28.412H235.316V26.956H232.684V28.412H221.932V30.68H232.684V32.08H224.396ZM240.972 35.86H235.316V34.04H240.972V35.86ZM232.684 35.86H227.028V34.04H232.684V35.86ZM235.316 41.32H241.448V42.916H235.316V41.32ZM241.448 45.072V46.612H235.316V45.072H241.448ZM255.028 26.816C253.684 31.128 251.612 34.908 248.812 38.156L249.68 40.984C250.548 40.06 251.388 39.108 252.172 38.1V52.884H254.776V34.236C255.896 32.276 256.82 30.176 257.52 27.964L255.028 26.816ZM259.732 28.832C259.172 32.416 258.052 35.468 256.428 37.96L258.136 40.172C259.144 38.716 259.984 37.12 260.684 35.356H264.912V41.376H256.96V43.952H264.912V52.772H267.572V43.952H274.796V41.376H267.572V35.356H273.76V32.752H267.572V27.152H264.912V32.752H261.552C261.86 31.632 262.112 30.428 262.336 29.168L259.732 28.832ZM281.376 45.996C280.704 45.996 280.172 46.164 279.78 46.556C279.36 46.948 279.164 47.452 279.164 48.096C279.164 48.684 279.36 49.188 279.752 49.58C280.144 49.972 280.62 50.168 281.208 50.168C281.488 50.168 281.712 50.14 281.88 50.084C281.88 50.756 281.656 51.4 281.18 52.044C280.676 52.66 280.032 53.08 279.276 53.36V55.096C280.676 54.704 281.796 53.976 282.636 52.912C283.476 51.848 283.896 50.616 283.896 49.188C283.896 48.236 283.644 47.48 283.196 46.864C282.692 46.276 282.104 45.996 281.376 45.996ZM320.884 27.04V28.664H314.332V30.82H320.884V32.192H315.508V34.292H320.884V35.692H313.548V37.904H330.852V35.692H323.432V34.292H329.172V32.192H323.432V30.82H330.152V28.664H323.432V27.04H320.884ZM318.056 44.96H326.372V46.528H318.056V44.96ZM326.372 42.944H318.056V41.348H326.372V42.944ZM318.056 48.544H326.372V49.58C326.372 50.196 326.064 50.504 325.504 50.504L323.32 50.364L323.936 52.716H326.26C328.024 52.716 328.92 51.848 328.92 50.112V39.192H315.536V52.884H318.056V48.544ZM308.872 27.264L306.996 29.084C308.984 30.54 310.524 31.94 311.616 33.228L313.436 31.38C312.204 30.008 310.664 28.636 308.872 27.264ZM305.064 35.384V37.932H308.872V48.18C308.872 48.768 308.62 49.272 308.172 49.664L309.18 52.072C311 50.784 312.736 49.3 314.36 47.62L313.66 44.82C312.876 45.632 312.148 46.388 311.42 47.088V35.384H305.064ZM334.996 28.524V31.1H339.924V37.204C339.924 37.372 339.896 37.596 339.896 37.82H333.54V40.396H339.7C339.476 42.384 339.112 44.12 338.58 45.576C337.768 47.592 336.228 49.272 333.988 50.588L335.416 52.828C337.908 51.568 339.7 49.748 340.764 47.396C341.604 45.52 342.136 43.196 342.416 40.396H349.92V52.52H352.58V40.396H358.488V37.82H352.58V31.1H357.06V28.524H334.996ZM342.612 31.1H349.92V37.82H342.584C342.584 37.624 342.612 37.428 342.612 37.204V31.1ZM384.64 41.824H367.952V52.996H370.556V51.68H382.064V52.996H384.64V41.824ZM370.556 49.188V44.344H382.064V49.188H370.556ZM382.344 32.36V36.084H366.692V32.36H382.344ZM366.692 38.52H384.976V29.868H375.96C375.596 28.72 375.232 27.684 374.84 26.732L372.068 27.18C372.516 27.992 372.908 28.888 373.244 29.868H364.06V39.724C364.032 44.372 362.968 48.152 360.896 51.12L362.996 52.968C365.432 49.272 366.664 44.848 366.692 39.724V38.52ZM404.38 27.124V34.6H398.5V52.716H401.188V46.836H410.344V48.908C410.344 49.748 409.924 50.168 409.112 50.168L406.172 50.084L406.872 52.66H409.98C411.996 52.66 413.004 51.596 413.004 49.496V34.6H407.068V27.124H404.38ZM401.188 42.02H410.344V44.568H401.188V42.02ZM410.344 39.752H401.188V37.176H410.344V39.752ZM399.368 27.768L397.156 28.832C398.248 30.232 399.256 31.772 400.208 33.508L402.308 32.472C401.356 30.764 400.376 29.196 399.368 27.768ZM411.968 27.74C411.24 29.392 410.232 31.044 408.944 32.724L410.988 33.816C412.276 32.192 413.34 30.512 414.124 28.776L411.968 27.74ZM394.188 41.544C392.872 44.932 391.332 48.236 389.596 51.484L392.06 52.576C393.684 49.412 395.196 46.024 396.54 42.44L394.188 41.544ZM392.004 27.32L390.1 29.168C392.2 30.68 393.824 32.08 395 33.396L396.904 31.492C395.56 30.092 393.936 28.72 392.004 27.32ZM391.22 33.872L389.316 35.72C391.276 37.26 392.816 38.688 393.936 39.976L395.812 38.072C394.58 36.672 393.04 35.272 391.22 33.872ZM421.152 28.944V43.084H439.072V28.944H430.196C430.476 28.384 430.728 27.796 430.896 27.18L428.124 26.816C427.928 27.544 427.676 28.244 427.34 28.944H421.152ZM436.496 40.816H423.728V38.996H436.496V40.816ZM423.728 36.868V35.104H436.496V36.868H423.728ZM423.728 33.004V31.212H436.496V33.004H423.728ZM419.64 44.708C419.164 46.78 418.352 48.74 417.176 50.532L419.416 51.96C420.592 50.056 421.488 47.816 422.16 45.212L419.64 44.708ZM433.584 52.464C434.704 52.464 435.516 52.24 436.076 51.82C436.664 51.316 437.084 49.888 437.308 47.508L434.76 46.696C434.676 48.348 434.48 49.328 434.172 49.664C433.976 49.944 433.612 50.084 433.08 50.084H427.228C426.668 50.084 426.388 49.776 426.388 49.216V44.652H423.7V49.776C423.7 51.568 424.624 52.464 426.472 52.464H433.584ZM430.14 43.56L428.18 44.764C429.496 46.164 430.532 47.452 431.316 48.628L433.304 47.228C432.576 46.164 431.512 44.96 430.14 43.56ZM439.1 44.148L437.028 45.436C438.624 47.62 439.884 49.58 440.836 51.372L442.936 49.888C442.04 48.264 440.78 46.332 439.1 44.148ZM448.592 52.632C450.412 52.632 451.336 51.708 451.336 49.916V42.076C452.036 41.74 452.736 41.376 453.464 41.012V38.296C452.764 38.688 452.064 39.052 451.336 39.388V34.74H453.94V32.192H451.336V27.124H448.648V32.192H445.484V34.74H448.648V40.508C447.472 40.928 446.296 41.292 445.092 41.572L445.736 44.26C446.716 43.924 447.696 43.588 448.648 43.224V49.216C448.648 49.86 448.312 50.196 447.668 50.196C446.996 50.196 446.268 50.14 445.54 50.056L446.128 52.632H448.592ZM455.844 27.908V38.016H468.444V27.908H455.844ZM465.84 35.86H458.42V33.956H465.84V35.86ZM458.42 31.94V30.064H465.84V31.94H458.42ZM454.024 39.472V41.852H460.856V49.16L460.604 49.076C459.512 48.628 458.56 47.564 457.72 45.94C457.916 45.016 458.056 44.064 458.112 43.056L455.76 42.776C455.536 45.856 454.416 48.628 452.4 51.148L454.388 52.856C455.424 51.54 456.264 50.112 456.908 48.572C457.692 49.86 458.588 50.756 459.568 51.26C460.94 51.932 463.488 52.268 467.212 52.296C468.108 52.324 469.088 52.352 470.18 52.352L470.908 49.776C469.844 49.888 468.556 49.944 467.044 49.944C465.644 49.944 464.44 49.86 463.404 49.748V46.78H468.92V44.428H463.404V41.852H470.124V39.472H454.024ZM476.088 46.64H482.276V49.104H476.088V46.64ZM482.276 51.344V52.688H484.348V44.008L485.832 45.94C486.616 44.988 487.26 43.924 487.82 42.748H490.956V45.1H486.896V47.396H490.956V49.86H485.412V52.352H498.796V49.86H493.504V47.396H497.48V45.1H493.504V42.748H498.096V40.424H493.504V38.464H490.956V40.424H488.688C488.856 39.864 488.996 39.248 489.136 38.604L486.84 38.352C486.392 40.536 485.552 42.412 484.348 43.952V33.172H481.8V30.316H484.852V28.02H473.232V30.316H476.536V33.172H473.988V52.716H476.088V51.344H482.276ZM479.784 33.172H478.552V30.316H479.784V33.172ZM482.276 44.54H476.088V42.776L476.9 43.504C478.076 42.132 478.664 39.948 478.692 36.98V35.356H479.728V40.704C479.728 41.74 480.176 42.272 481.128 42.272H482.276V44.54ZM481.184 35.356H482.276V40.648H481.548C481.296 40.648 481.184 40.508 481.184 40.284V35.356ZM476.088 42.132V35.356H477.264V36.98C477.236 39.22 476.844 40.956 476.088 42.132ZM486.028 27.964V37.792H497.76V27.964H486.028ZM495.268 35.692H488.492V33.928H495.268V35.692ZM488.492 31.856V30.064H495.268V31.856H488.492Z" fill="#15161A"/>
  <rect x="550" y="17" width="112" height="48" rx="24" fill="#006EFF"/>
  <path d="M586.176 43.28L584.784 44.168C586.056 45.848 587.208 47.456 588.216 48.992C585.912 49.28 581.832 49.64 576.024 50.096C577.776 48.392 579.504 45.752 581.208 42.152H592.656V40.472H582.888V35.936H591.12V34.256H582.888V30.44H581.112V34.256H572.832V35.936H581.112V40.472H571.32V42.152H579.288C577.128 46.472 575.016 49.184 572.952 50.312L573.264 51.728C578.256 51.44 583.536 51.008 589.104 50.432C589.536 51.152 589.944 51.872 590.328 52.568L591.792 51.536C590.496 49.184 588.624 46.448 586.176 43.28ZM596.688 31.832V33.512H601.056V39.032C601.056 39.272 601.032 39.56 601.032 39.872H595.392V41.528H600.936C600.744 43.448 600.408 45.08 599.904 46.472C599.136 48.296 597.768 49.76 595.824 50.864L596.76 52.352C598.872 51.248 600.384 49.688 601.296 47.672C602.016 46.04 602.472 44 602.688 41.528H609.624V52.16H611.376V41.528H616.632V39.872H611.376V33.512H615.384V31.832H596.688ZM602.832 33.512H609.624V39.872H602.808C602.808 39.608 602.832 39.32 602.832 39.032V33.512ZM638.952 43.256H625.032V52.496H626.712V51.248H637.272V52.496H638.952V43.256ZM626.712 49.616V44.888H637.272V49.616H626.712ZM637.512 34.616V38.384H623.472V34.616H637.512ZM623.472 39.992H639.216V32.984H631.512C631.128 31.928 630.768 30.992 630.408 30.176L628.608 30.464C629.04 31.232 629.424 32.072 629.76 32.984H621.768V41.024C621.744 45.2 620.808 48.584 618.936 51.224L620.28 52.424C622.392 49.256 623.448 45.44 623.472 41.024V39.992Z" fill="#fff"/>
</svg>
