<svg fill="none" xmlns="http://www.w3.org/2000/svg" viewBox="0 0 57 81" class="design-iconfont">
  <path d="M56.8974 81C56.2942 75.9378 44.0797 71.9333 29 71.9333C13.9203 71.9333 1.70573 75.9378 1.10254 81H56.8974Z" fill="url(#kzh9xrzvu__paint0_linear_732_8546)"/>
  <path d="M1.80005 22.4852L4.06672 43.9662H6.33338V21.718H1.80005V22.4852Z" fill="#222"/>
  <path d="M51.6667 22.4851V44.7333H53.9334L56.2001 23.2523V22.4851H51.6667Z" fill="#222"/>
  <path d="M40.159 80.9999C40.159 80.9999 38.4795 71.6035 39.1847 68.6674C39.8899 65.7313 19.2998 65.4372 19.5127 68.6674C19.7255 71.8976 18.5385 80.9999 18.5385 80.9999H40.159Z" fill="#FFDFDD"/>
  <path fill-rule="evenodd" clip-rule="evenodd" d="M0.405151 41.7175C0.405151 34.7873 7.64088 36.2342 9.44982 37.1481C11.2587 38.062 12.1632 51.0087 11.711 52.3795C11.2587 53.7503 7.03791 52.9887 5.68121 51.6179C5.44746 51.3817 5.13763 51.1365 4.78489 50.8573C3.09029 49.516 0.405151 47.3907 0.405151 41.7175ZM45.0443 52.3795C44.5921 51.0087 45.4966 38.062 47.3055 37.1481C49.1144 36.2342 56.2748 34.7873 56.1994 41.7175C56.1994 47.4096 53.5483 49.5302 51.8724 50.8707C51.5303 51.1444 51.2288 51.3855 50.9987 51.6179C49.642 52.9887 45.4966 53.7503 45.0443 52.3795Z" fill="#FFDFDD"/>
  <path d="M29.4068 72.6307C29.1046 72.6307 28.6513 72.6307 28.6513 72.6307C28.6513 72.6307 28.198 72.6307 27.8957 72.6307C14.2957 72.6307 5.98462 57.6337 5.98462 31.2788V15.4409H51.318V31.2788C51.318 57.6337 43.0068 72.6307 29.4068 72.6307Z" fill="#FFF2F1"/>
  <path d="M52.4223 23.3758V30.0872C50.9855 30.0872 49.4925 29.7519 48.9454 28.9077C48.1589 27.6938 46.5001 24.9515 45.6223 22.6249C44.706 20.1965 44.9989 18.1194 41.0889 18.1194H31.2667H20.6889H16.9112C13.7095 18.1194 13.2941 20.1965 12.3778 22.6249C11.4982 24.9561 9.83747 27.7018 9.04583 28.9148C8.49769 29.7547 7.01 30.0872 5.57783 30.0872V22.6249H1.80005V21.874C1.80005 16.8429 4.06672 12.3374 7.61783 9.33369C5.88005 6.70548 4.82227 3.47654 4.82227 0.0974121H33.5334C46.0756 0.0974121 56.2001 10.1597 56.2001 22.6249V23.3758H52.4223Z" fill="#222"/>
  <path d="M29 66.3539C24.3969 66.3539 20.6307 62.5877 20.6307 57.9846H37.3692C37.3692 62.5877 33.603 66.3539 29 66.3539Z" fill="#FFC6C1"/>
  <defs>
    <linearGradient id="kzh9xrzvu__paint0_linear_732_8546" x1="1.65182" y1="81" x2="56.3481" y2="81" gradientUnits="userSpaceOnUse">
      <stop stop-color="#00A4FF"/>
      <stop offset="1" stop-color="#006EFF"/>
    </linearGradient>
  </defs>
</svg>
